<svg width="580" height="580" viewBox="0 0 580 580" xmlns="http://www.w3.org/2000/svg">

<g transform="translate(290, 290)">

<circle cx="0" cy="0" r="195" fill="none" stroke="#2a3545" stroke-width="18"/>
<circle cx="0" cy="0" r="195" fill="none" stroke="#87CEEB" stroke-width="3" opacity="0.4"/>
<circle cx="0" cy="0" r="210" fill="none" stroke="#87CEEB" stroke-width="1.5" opacity="0.25"/>
<circle cx="0" cy="0" r="180" fill="none" stroke="#87CEEB" stroke-width="1.5" opacity="0.25"/>

<g fill="#87CEEB">
  <g transform="rotate(0)">
    <rect x="-14" y="-250" width="28" height="65" rx="3"/>
    <polygon points="0,-260 -10,-245 10,-245"/>
    <rect x="-8" y="-188" width="16" height="68" rx="2"/>
    <rect x="-12" y="-145" width="24" height="12" rx="2"/>
  </g>
  <g transform="rotate(45)">
    <rect x="-14" y="-250" width="28" height="65" rx="3"/>
    <polygon points="0,-260 -10,-245 10,-245"/>
    <rect x="-8" y="-188" width="16" height="68" rx="2"/>
    <rect x="-12" y="-145" width="24" height="12" rx="2"/>
  </g>
  <g transform="rotate(90)">
    <rect x="-14" y="-250" width="28" height="65" rx="3"/>
    <polygon points="0,-260 -10,-245 10,-245"/>
    <rect x="-8" y="-188" width="16" height="68" rx="2"/>
    <rect x="-12" y="-145" width="24" height="12" rx="2"/>
  </g>
  <g transform="rotate(135)">
    <rect x="-14" y="-250" width="28" height="65" rx="3"/>
    <polygon points="0,-260 -10,-245 10,-245"/>
    <rect x="-8" y="-188" width="16" height="68" rx="2"/>
    <rect x="-12" y="-145" width="24" height="12" rx="2"/>
  </g>
  <g transform="rotate(180)">
    <rect x="-14" y="-250" width="28" height="65" rx="3"/>
    <polygon points="0,-260 -10,-245 10,-245"/>
    <rect x="-8" y="-188" width="16" height="68" rx="2"/>
    <rect x="-12" y="-145" width="24" height="12" rx="2"/>
  </g>
  <g transform="rotate(225)">
    <rect x="-14" y="-250" width="28" height="65" rx="3"/>
    <polygon points="0,-260 -10,-245 10,-245"/>
    <rect x="-8" y="-188" width="16" height="68" rx="2"/>
    <rect x="-12" y="-145" width="24" height="12" rx="2"/>
  </g>
  <g transform="rotate(270)">
    <rect x="-14" y="-250" width="28" height="65" rx="3"/>
    <polygon points="0,-260 -10,-245 10,-245"/>
    <rect x="-8" y="-188" width="16" height="68" rx="2"/>
    <rect x="-12" y="-145" width="24" height="12" rx="2"/>
  </g>
  <g transform="rotate(315)">
    <rect x="-14" y="-250" width="28" height="65" rx="3"/>
    <polygon points="0,-260 -10,-245 10,-245"/>
    <rect x="-8" y="-188" width="16" height="68" rx="2"/>
    <rect x="-12" y="-145" width="24" height="12" rx="2"/>
  </g>
</g>

<circle cx="0" cy="0" r="125" fill="#0c1018" stroke="#2a3545" stroke-width="14"/>
<circle cx="0" cy="0" r="125" fill="none" stroke="#D97757" stroke-width="2.5" opacity="0.6"/>
<circle cx="0" cy="0" r="112" fill="none" stroke="#D97757" stroke-width="1" opacity="0.3"/>

<circle cx="0" cy="0" r="80" fill="#0c1018"/>

<g fill="#D97757">
  <ellipse cx="0" cy="-38" rx="11" ry="19"/>
  <ellipse cx="32.9" cy="19" rx="11" ry="19" transform="rotate(120 32.9 19)"/>
  <ellipse cx="-32.9" cy="19" rx="11" ry="19" transform="rotate(-120 -32.9 19)"/>
</g>
<circle cx="0" cy="0" r="8" fill="#D97757"/>

<g fill="none" stroke="#D97757" stroke-width="2.5" stroke-linecap="round" opacity="0.6">
  <line x1="0" y1="-62" x2="0" y2="-82"/>
  <line x1="53.7" y1="31" x2="71" y2="41"/>
  <line x1="-53.7" y1="31" x2="-71" y2="41"/>
</g>

</g>

</svg>
